<svg width="101" height="101" viewBox="0 0 101 101" fill="none" xmlns="http://www.w3.org/2000/svg">
<path d="M0 0H101V71C101 87.5685 87.5685 101 71 101H0V0Z" fill="url(#paint0_linear_229_1829)"/>
<path d="M50.3626 32.5C51.4752 32.5 57.3448 40.0489 57.7727 46.6873C58.4859 57.5241 54.3208 68.5 50.3626 68.5C46.2903 68.5 42.2465 56.8151 43.3234 46.6873C43.9296 41.0013 49.3784 32.5 50.3626 32.5Z" fill="white"/>
<path d="M58.7845 48.4946C58.4112 52.2399 58.6142 53.2567 57.2519 58.6348C56.2301 62.5519 54.8546 64.9938 54.9136 65.1729C55.2214 65.8317 65.236 60.4752 68.8253 50.4926C69.2904 49.1964 70.1353 43.2312 69.1856 42.4077C68.4192 41.7488 59.1251 44.8209 58.7845 48.4946Z" fill="white"/>
<path d="M61.8875 62.7299C57.6057 65.9462 54.5961 67.271 54.9386 68.4412C54.9815 68.581 58.566 68.7282 66.8362 65.6223C72.5923 63.4585 75.7914 58.1299 75.4795 57.2835C75.3449 56.9229 72.8369 55.6643 71.167 55.4214C69.0995 55.127 65.2519 60.2054 61.8875 62.7299Z" fill="white"/>
<path d="M42.2403 48.4946C42.6136 52.2399 42.4106 53.2567 43.7727 58.6348C44.7616 62.5447 46.1697 64.9938 46.0845 65.1729C45.7767 65.8317 35.7634 60.4752 32.1745 50.4926C31.7095 49.1964 30.8647 43.2312 31.8143 42.4077C32.574 41.7488 41.8735 44.8209 42.2403 48.4946Z" fill="white"/>
<path d="M39.1131 62.7269C43.3948 65.9449 46.4042 67.2703 46.0617 68.4412C46.0189 68.5811 42.4345 68.7284 34.1646 65.6209C28.4087 63.4633 25.2036 58.1319 25.5216 57.2851C25.6562 56.9243 28.1641 55.6651 29.8339 55.4221C31.9259 55.1201 35.7488 60.2011 39.1131 62.7269Z" fill="white"/>
<defs>
<linearGradient id="paint0_linear_229_1829" x1="0" y1="0" x2="131.706" y2="42.5186" gradientUnits="userSpaceOnUse">
<stop stop-color="#4C9995"/>
<stop offset="1" stop-color="#85C5BC"/>
</linearGradient>
</defs>
</svg>
