<svg width="116" height="26" viewBox="0 0 116 26" fill="none" xmlns="http://www.w3.org/2000/svg">
<g clip-path="url(#clip0_215_4710)">
<mask id="mask0_215_4710" style="mask-type:luminance" maskUnits="userSpaceOnUse" x="0" y="0" width="116" height="26">
<path d="M116 0H0V26H116V0Z" fill="white"/>
</mask>
<g mask="url(#mask0_215_4710)">
<path d="M46.9622 5.23897V2.46924H39.049H37.133H35.8862V20.8184H39.049V13.2082H46.2157V10.4384H39.049V5.23897H46.9622Z" fill="url(#paint0_linear_215_4710)"/>
<path d="M77.3027 12.8388V20.8175H80.2888V12.1041C80.2888 10.0809 79.2138 6.35547 74.66 6.35547C71.1016 6.35547 69.7329 8.45238 69.7329 8.45238L69.5077 6.61937H66.8588V20.8175H69.8848V13.5853C69.8848 10.4233 71.6018 8.93262 73.9135 8.93262C76.6607 8.93262 77.3027 11.0628 77.3027 12.8388Z" fill="url(#paint1_linear_215_4710)"/>
<path d="M109.901 19.596L116 6.59375H112.887L108.45 16.541L103.722 6.59375H100.442L106.863 19.7505C106.723 20.0691 105.867 21.9758 105.237 22.5892C104.687 23.1098 103.928 23.3173 103.019 23.3173L103.46 25.7773C104.125 25.7974 104.787 25.6872 105.406 25.4533C106.024 25.2194 106.586 24.8668 107.056 24.4174C108.458 23.0623 109.613 20.2094 109.613 20.2094L109.861 19.684H109.944L109.901 19.596Z" fill="url(#paint2_linear_215_4710)"/>
<path d="M56.8292 6.3833H56.0254C54.0574 6.3833 52.17 7.13023 50.7784 8.45977C49.3867 9.78931 48.6049 11.5926 48.6049 13.4729V14.0125C48.6056 15.8923 49.3877 17.6951 50.7793 19.0241C52.1708 20.3531 54.0578 21.0997 56.0254 21.0997H56.8292C58.7968 21.0997 60.6838 20.3531 62.0754 19.0241C63.4669 17.6951 64.249 15.8923 64.2496 14.0125V13.4729C64.2496 11.5926 63.4678 9.78931 62.0763 8.45977C60.6847 7.13023 58.7972 6.3833 56.8292 6.3833ZM61.2412 13.9198C61.2412 15.1178 60.743 16.2667 59.8564 17.1139C58.9697 17.961 57.7671 18.437 56.5132 18.437H56.3589C55.105 18.437 53.9023 17.961 53.0157 17.1139C52.129 16.2667 51.6308 15.1178 51.6308 13.9198V13.5631C51.6308 12.3652 52.129 11.2162 53.0157 10.3691C53.9023 9.52194 55.105 9.04603 56.3589 9.04603H56.4983C57.7521 9.04603 58.9548 9.52194 59.8414 10.3691C60.7281 11.2162 61.2263 12.3652 61.2263 13.5631L61.2412 13.9198Z" fill="url(#paint3_linear_215_4710)"/>
<path d="M95.3738 1.55762V7.93156C94.0616 6.92844 92.4309 6.38252 90.7503 6.38383H90.305C88.3371 6.38447 86.45 7.1316 85.0586 8.46101C83.6671 9.79042 82.8851 11.5933 82.8845 13.4734V14.0131C82.8851 15.8929 83.6672 17.6955 85.0588 19.0246C86.4502 20.3537 88.3373 21.1002 90.305 21.1002H90.7503C92.6179 21.1029 94.4173 20.4302 95.787 19.2173L96.0323 20.7888H98.4197V1.55762H95.3738ZM95.5231 13.9203C95.5231 15.1183 95.0251 16.2673 94.1384 17.1145C93.2517 17.9616 92.0491 18.4375 90.7951 18.4375H90.6409C89.387 18.4375 88.1844 17.9616 87.2977 17.1145C86.411 16.2673 85.9129 15.1183 85.9129 13.9203V13.5637C85.9129 12.3658 86.411 11.2168 87.2977 10.3696C88.1844 9.52249 89.387 9.04657 90.6409 9.04657H90.7951C92.0491 9.04657 93.2517 9.52249 94.1384 10.3696C95.0251 11.2168 95.5231 12.3658 95.5231 13.5637V13.9203Z" fill="url(#paint4_linear_215_4710)"/>
<path d="M16.4052 20.2837V17.2643C16.405 17.0976 16.3589 16.9338 16.2716 16.7894C16.1843 16.645 16.0587 16.5252 15.9074 16.4418L13.1703 14.9321C13.0189 14.8486 12.8473 14.8047 12.6725 14.8047C12.4978 14.8047 12.3261 14.8486 12.1748 14.9321L9.43757 16.4418C9.2864 16.5252 9.16085 16.645 9.07349 16.7894C8.98614 16.9338 8.94006 17.0976 8.93988 17.2643V20.2837C8.93963 20.4508 8.98549 20.6152 9.07288 20.7599C9.16025 20.9048 9.28604 21.025 9.43757 21.1086L12.1748 22.6183C12.3261 22.7018 12.4978 22.7457 12.6725 22.7457C12.8473 22.7457 13.0189 22.7018 13.1703 22.6183L15.9074 21.1086C16.059 21.025 16.1848 20.9048 16.2722 20.7599C16.3595 20.6152 16.4054 20.4508 16.4052 20.2837Z" fill="url(#paint5_linear_215_4710)"/>
<path d="M25.3451 20.2837V17.2643C25.3448 17.0976 25.2988 16.9338 25.2114 16.7894C25.1241 16.645 24.9985 16.5252 24.8473 16.4418L22.1101 14.9321C21.9588 14.8486 21.7872 14.8047 21.6124 14.8047C21.4377 14.8047 21.266 14.8486 21.1147 14.9321L18.3775 16.4418C18.2263 16.5252 18.1007 16.645 18.0134 16.7894C17.9261 16.9338 17.88 17.0976 17.8798 17.2643V20.2837C17.8795 20.4508 17.9254 20.6152 18.0128 20.7599C18.1002 20.9048 18.226 21.025 18.3775 21.1086L21.1147 22.6183C21.266 22.7018 21.4377 22.7457 21.6124 22.7457C21.7872 22.7457 21.9588 22.7018 22.1101 22.6183L24.8473 21.1086C24.9989 21.025 25.1247 20.9048 25.212 20.7599C25.2994 20.6152 25.3453 20.4508 25.3451 20.2837Z" fill="url(#paint6_linear_215_4710)"/>
<path d="M11.9446 12.8824V9.86301C11.9454 9.69544 11.8997 9.53066 11.8122 9.38537C11.7249 9.24009 11.5988 9.11945 11.447 9.03565L8.70964 7.53073C8.55832 7.44727 8.38668 7.40332 8.21195 7.40332C8.03722 7.40332 7.86558 7.44727 7.71426 7.53073L4.97699 9.03565C4.82583 9.11904 4.70027 9.23894 4.61292 9.38331C4.52556 9.5277 4.47949 9.69149 4.47931 9.85825V12.8776C4.47905 13.0447 4.52492 13.2091 4.6123 13.3539C4.69967 13.4987 4.82547 13.619 4.97699 13.7026L7.71426 15.217C7.86558 15.3005 8.03722 15.3444 8.21195 15.3444C8.38668 15.3444 8.55832 15.3005 8.70964 15.217L11.447 13.7073C11.5985 13.6238 11.7243 13.5035 11.8117 13.3586C11.8991 13.2138 11.9449 13.0495 11.9446 12.8824Z" fill="url(#paint7_linear_215_4710)"/>
<path d="M20.8762 12.8824V9.86301C20.8761 9.69624 20.83 9.53245 20.7426 9.38808C20.6552 9.24369 20.5297 9.12379 20.3786 9.04042L17.6413 7.53073C17.4899 7.44727 17.3183 7.40332 17.1435 7.40332C16.9689 7.40332 16.7972 7.44727 16.6459 7.53073L13.9086 9.03565C13.7574 9.11904 13.6319 9.23894 13.5446 9.38331C13.4572 9.5277 13.4111 9.69149 13.4109 9.85825V12.8776C13.4107 13.0447 13.4565 13.2091 13.5439 13.3539C13.6313 13.4987 13.7571 13.619 13.9086 13.7026L16.6459 15.2123C16.7972 15.2957 16.9689 15.3397 17.1435 15.3397C17.3183 15.3397 17.4899 15.2957 17.6413 15.2123L20.3786 13.7026C20.5294 13.6194 20.6546 13.4998 20.742 13.356C20.8294 13.2121 20.8755 13.0487 20.8762 12.8824Z" fill="url(#paint8_linear_215_4710)"/>
<path d="M7.46528 20.2837V17.2643C7.4651 17.0976 7.41903 16.9338 7.33167 16.7894C7.24432 16.645 7.11876 16.5252 6.9676 16.4418L4.23033 14.9321C4.07901 14.8486 3.90737 14.8047 3.73265 14.8047C3.55792 14.8047 3.38627 14.8486 3.23495 14.9321L0.497687 16.4418C0.346521 16.5252 0.220964 16.645 0.133611 16.7894C0.0462574 16.9338 0.00018012 17.0976 1.08157e-06 17.2643V20.2837C-0.000256823 20.4508 0.0456132 20.6152 0.132988 20.7599C0.220363 20.9048 0.346156 21.025 0.497687 21.1086L3.23495 22.6183C3.38627 22.7018 3.55792 22.7457 3.73265 22.7457C3.90737 22.7457 4.07901 22.7018 4.23033 22.6183L6.9676 21.1086C7.11913 21.025 7.24492 20.9048 7.3323 20.7599C7.41967 20.6152 7.46554 20.4508 7.46528 20.2837Z" fill="url(#paint9_linear_215_4710)"/>
<path d="M16.4052 5.48099V2.46164C16.405 2.29487 16.3589 2.13108 16.2716 1.9867C16.1843 1.84232 16.0587 1.72242 15.9074 1.63904L13.1703 0.129361C13.0189 0.0458943 12.8473 0.00195312 12.6725 0.00195312C12.4978 0.00195312 12.3261 0.0458943 12.1748 0.129361L9.43757 1.63904C9.2864 1.72242 9.16085 1.84232 9.07349 1.9867C8.98614 2.13108 8.94006 2.29487 8.93988 2.46164V5.48099C8.93963 5.64816 8.98549 5.81245 9.07288 5.95728C9.16025 6.10211 9.28604 6.22239 9.43757 6.30597L12.1748 7.81564C12.3261 7.89911 12.4978 7.94305 12.6725 7.94305C12.8473 7.94305 13.0189 7.89911 13.1703 7.81564L15.9074 6.30597C16.059 6.22239 16.1848 6.10211 16.2722 5.95728C16.3595 5.81245 16.4054 5.64816 16.4052 5.48099Z" fill="url(#paint10_linear_215_4710)"/>
</g>
</g>
<defs>
<linearGradient id="paint0_linear_215_4710" x1="35.8862" y1="2.46924" x2="51.2513" y2="5.4634" gradientUnits="userSpaceOnUse">
<stop stop-color="#4C9995"/>
<stop offset="1" stop-color="#85C5BC"/>
</linearGradient>
<linearGradient id="paint1_linear_215_4710" x1="66.8588" y1="6.35547" x2="84.6023" y2="11.6749" gradientUnits="userSpaceOnUse">
<stop stop-color="#4C9995"/>
<stop offset="1" stop-color="#85C5BC"/>
</linearGradient>
<linearGradient id="paint2_linear_215_4710" x1="100.442" y1="6.59375" x2="121.408" y2="12.0822" gradientUnits="userSpaceOnUse">
<stop stop-color="#4C9995"/>
<stop offset="1" stop-color="#85C5BC"/>
</linearGradient>
<linearGradient id="paint3_linear_215_4710" x1="48.6049" y1="6.3833" x2="68.7584" y2="13.2998" gradientUnits="userSpaceOnUse">
<stop stop-color="#4C9995"/>
<stop offset="1" stop-color="#85C5BC"/>
</linearGradient>
<linearGradient id="paint4_linear_215_4710" x1="82.8845" y1="1.55762" x2="103.872" y2="6.94365" gradientUnits="userSpaceOnUse">
<stop stop-color="#4C9995"/>
<stop offset="1" stop-color="#85C5BC"/>
</linearGradient>
<linearGradient id="paint5_linear_215_4710" x1="8.93988" y1="14.8047" x2="18.7828" y2="17.7919" gradientUnits="userSpaceOnUse">
<stop stop-color="#4C9995"/>
<stop offset="1" stop-color="#85C5BC"/>
</linearGradient>
<linearGradient id="paint6_linear_215_4710" x1="17.8798" y1="14.8047" x2="27.7226" y2="17.7919" gradientUnits="userSpaceOnUse">
<stop stop-color="#4C9995"/>
<stop offset="1" stop-color="#85C5BC"/>
</linearGradient>
<linearGradient id="paint7_linear_215_4710" x1="4.47931" y1="7.40332" x2="14.3222" y2="10.3905" gradientUnits="userSpaceOnUse">
<stop stop-color="#4C9995"/>
<stop offset="1" stop-color="#85C5BC"/>
</linearGradient>
<linearGradient id="paint8_linear_215_4710" x1="13.4109" y1="7.40332" x2="23.2528" y2="10.392" gradientUnits="userSpaceOnUse">
<stop stop-color="#4C9995"/>
<stop offset="1" stop-color="#85C5BC"/>
</linearGradient>
<linearGradient id="paint9_linear_215_4710" x1="0" y1="14.8047" x2="9.84287" y2="17.7919" gradientUnits="userSpaceOnUse">
<stop stop-color="#4C9995"/>
<stop offset="1" stop-color="#85C5BC"/>
</linearGradient>
<linearGradient id="paint10_linear_215_4710" x1="8.93988" y1="0.00195312" x2="18.7828" y2="2.98915" gradientUnits="userSpaceOnUse">
<stop stop-color="#4C9995"/>
<stop offset="1" stop-color="#85C5BC"/>
</linearGradient>
<clipPath id="clip0_215_4710">
<rect width="116" height="26" fill="white"/>
</clipPath>
</defs>
</svg>
