<svg width="57" height="28" viewBox="0 0 57 28" fill="none" xmlns="http://www.w3.org/2000/svg">
<g clip-path="url(#clip0_215_4726)">
<path d="M3.88684 23.4092C3.7911 23.3861 3.69484 23.3643 3.59948 23.3391C3.06536 23.1964 2.59864 22.9387 2.21307 22.5512C1.54785 21.8824 1.18988 21.0836 1.15895 20.1499C1.14775 19.7992 1.18945 19.4542 1.27417 19.1135C1.37269 18.7133 1.52667 18.3355 1.72824 17.9745C2.05006 17.3983 2.46868 16.8972 2.9638 16.454C3.33695 16.1201 3.74355 15.8293 4.17921 15.5771C4.58695 15.3406 4.96772 15.0678 5.33169 14.7721C5.7898 14.3993 6.21665 13.994 6.63977 13.5849C7.01382 13.2232 7.38327 12.858 7.77325 12.5131C8.06665 12.2529 8.37111 12.006 8.69987 11.7891C9.11111 11.5182 9.54947 11.3042 10.0391 11.2006C10.4065 11.1227 10.7756 11.1114 11.1473 11.1673C11.5677 11.2296 11.974 11.3408 12.3636 11.5075C12.9598 11.7632 13.4461 12.1508 13.833 12.6601C14.0975 13.0097 14.306 13.3897 14.4928 13.782C14.6909 14.1981 14.865 14.6239 15.0476 15.0466C15.2535 15.5228 15.4698 15.9937 15.7247 16.4476C15.9784 16.8999 16.2714 17.3273 16.6032 17.7291C17.0045 18.2154 17.344 18.7383 17.611 19.3057C17.8381 19.7921 18.0039 20.2965 18.0874 20.825C18.1525 21.2368 18.1655 21.6488 18.1126 22.0631C18.0327 22.6924 17.8139 23.2698 17.4215 23.781C17.0582 24.2547 16.5931 24.6055 16.0441 24.8533C15.6404 25.0354 15.219 25.1542 14.7733 25.184C14.6155 25.1952 14.4571 25.1953 14.2993 25.1833C14.2774 25.1817 14.2558 25.1821 14.2344 25.1817C14.2121 25.1893 14.1911 25.1771 14.1693 25.1762C14.1513 25.1755 14.134 25.1645 14.1152 25.1725C13.9827 25.1498 13.8498 25.127 13.7173 25.1044C13.7036 25.0905 13.6843 25.0952 13.6678 25.0902C13.6524 25.0876 13.6377 25.0851 13.6224 25.0824C13.6099 25.0803 13.5963 25.0779 13.584 25.0758C13.2465 25.0071 12.9295 24.8817 12.6145 24.7514C12.081 24.5297 11.5656 24.2701 11.037 24.038C10.6088 23.8505 10.173 23.683 9.72225 23.553C9.40989 23.4628 9.09096 23.4042 8.77019 23.3603C8.51366 23.3249 8.25359 23.3198 7.99458 23.3223C7.48303 23.3284 6.97428 23.3751 6.4654 23.4208C5.92697 23.4702 5.38869 23.5188 4.84771 23.5126C4.62773 23.5095 4.40832 23.5016 4.19134 23.4624C4.14685 23.4542 4.10134 23.4531 4.05639 23.4443C3.99955 23.4314 3.94115 23.4315 3.88684 23.4092ZM17.1024 4.04677C17.803 4.25305 18.2852 4.70083 18.6014 5.33094C18.8181 5.76302 18.9202 6.22344 18.9484 6.70181C18.9719 7.11366 18.935 7.52136 18.8476 7.92523C18.687 8.66729 18.3784 9.34536 17.9235 9.96088C17.6084 10.3874 17.2347 10.7567 16.7896 11.0543C16.3933 11.3187 15.9646 11.5107 15.4895 11.5948C15.1557 11.6538 14.8237 11.6543 14.4934 11.5779C13.9214 11.4464 13.4715 11.1388 13.1301 10.6776C12.8392 10.284 12.6729 9.83991 12.5881 9.36526C12.5289 9.03335 12.5149 8.69928 12.537 8.36386C12.5517 8.13392 12.5823 7.90641 12.6308 7.68196C12.7446 7.15204 12.9371 6.65008 13.2064 6.17681C13.4925 5.6729 13.8498 5.22436 14.2955 4.84482C14.6702 4.52558 15.0865 4.27269 15.5597 4.11425C15.9074 3.99764 16.2647 3.94487 16.633 3.9669C16.8349 3.98085 16.9146 3.996 17.1024 4.04677ZM0.130719 9.54374C0.180557 9.33293 0.257726 9.13083 0.352438 8.93523C0.535999 8.55507 0.783902 8.22239 1.12379 7.95937C1.50362 7.66592 1.93592 7.50801 2.4213 7.49753C2.8154 7.48941 3.18539 7.58522 3.53458 7.75923C3.93598 7.95961 4.27199 8.24105 4.55446 8.58089C4.99356 9.10736 5.26747 9.70957 5.41299 10.37C5.48897 10.7157 5.52149 11.0659 5.51048 11.4193C5.50522 11.5908 5.48668 11.7611 5.45946 11.9307C5.40733 12.2527 5.3169 12.5627 5.17882 12.8592C4.99465 13.2548 4.74274 13.6005 4.39175 13.8731C3.98886 14.186 3.52858 14.3447 3.01271 14.3382C2.63416 14.3334 2.27947 14.2322 1.9456 14.0602C1.49682 13.8282 1.13573 13.4998 0.837079 13.1035C0.545585 12.7179 0.335727 12.2921 0.194983 11.8344C0.0570457 11.3856 -0.010874 10.9256 0.00141722 10.4561C0.00381832 10.3731 0.0083555 10.2905 0.0117774 10.2079C0.00967031 10.1695 0.0199882 10.1324 0.0175667 10.0942C0.01608 10.0781 0.0211273 10.0639 0.0232064 10.0479C0.0238103 10.0279 0.0366667 10.0087 0.0279246 9.98707C0.0458669 9.88824 0.0637619 9.78968 0.0817514 9.6906C0.105621 9.66681 0.101752 9.63503 0.109129 9.60653C0.114651 9.58523 0.113198 9.56138 0.130719 9.54374ZM5.68227 5.67138C5.79153 5.0833 5.97388 4.56726 6.26876 4.09113C6.49134 3.73106 6.76482 3.41376 7.1116 3.15969C7.48523 2.88528 7.901 2.71381 8.37105 2.68008C8.8412 2.64582 9.27765 2.75328 9.68456 2.98088C10.0429 3.18168 10.3383 3.45212 10.5861 3.77208C10.9819 4.28228 11.2269 4.85838 11.3632 5.48045C11.4496 5.87602 11.4861 6.27589 11.475 6.67968C11.4687 6.90866 11.4476 7.13698 11.4113 7.36431C11.3646 7.6502 11.2946 7.93102 11.1952 8.20412C10.988 8.7749 10.6838 9.2875 10.2306 9.70916C9.94878 9.9706 9.62784 10.1717 9.25677 10.2927C8.84212 10.4276 8.42188 10.4417 7.99915 10.3361C7.61694 10.2408 7.28203 10.0564 6.98373 9.80689C6.59451 9.48177 6.30396 9.08343 6.08327 8.6354C5.82165 8.10338 5.67778 7.54007 5.62859 6.95273C5.60157 6.63143 5.60541 6.31006 5.63888 5.9892C5.65085 5.86871 5.66429 5.74768 5.68227 5.67138ZM22.7119 13.7642C22.7078 13.7868 22.7037 13.8097 22.6995 13.8326C22.5697 14.3955 22.3168 14.9029 21.9725 15.3692C21.7019 15.7344 21.383 16.055 21.0115 16.3239C20.5345 16.6697 20.01 16.9131 19.4206 17.0122C19.0676 17.0716 18.7154 17.0703 18.3655 16.9908C17.8493 16.8729 17.4275 16.6108 17.1074 16.1989C16.8432 15.8584 16.6986 15.4705 16.6392 15.0518C16.5854 14.6763 16.6041 14.3019 16.6838 13.9311C16.8586 13.1156 17.2602 12.4159 17.8451 11.8127C18.0428 11.6084 18.2601 11.4258 18.4958 11.2651C18.9803 10.9359 19.5073 10.7092 20.0966 10.6305C20.4318 10.5865 20.7641 10.597 21.0917 10.6791C21.5922 10.8042 22.0006 11.067 22.3099 11.4715C22.589 11.8364 22.7312 12.2525 22.7813 12.7009C22.809 12.9486 22.8064 13.1967 22.7701 13.4438C22.7659 13.4667 22.7617 13.4899 22.7575 13.5128C22.7397 13.596 22.7248 13.6798 22.7119 13.7642Z" fill="url(#paint0_linear_215_4726)"/>
</g>
<path fill-rule="evenodd" clip-rule="evenodd" d="M43.4456 2.56571C43.631 2.39927 43.8763 2.31203 44.1273 2.32322C49.4345 2.4821 53.87 6.33483 54.6739 11.4842C54.679 11.5149 54.679 11.5463 54.6739 11.577C54.6912 11.8207 54.6088 12.061 54.4451 12.2449C54.2813 12.4289 54.0495 12.5412 53.8011 12.5571L44.8844 13.1451C44.5895 13.1712 44.2971 13.0742 44.0789 12.8778C43.8607 12.6815 43.7371 12.4039 43.7383 12.1135L43.1389 3.35486V3.21043C43.1498 2.9641 43.2601 2.73214 43.4456 2.56571ZM42.8339 15.4354L50.5321 14.9608H50.615C50.9469 14.9662 51.263 15.1008 51.4937 15.3349C51.7245 15.569 51.8509 15.8835 51.8453 16.2091C51.5408 20.647 48.2871 24.355 43.8593 25.3103C39.4316 26.2655 34.8925 24.2388 32.7185 20.3356C32.0792 19.2115 31.6752 17.9734 31.5303 16.694C31.4741 16.3149 31.4494 15.9319 31.4567 15.5488C31.4713 10.8298 34.8311 6.75666 39.5322 5.75861C40.1013 5.65209 40.6719 5.93623 40.9202 6.44981C41.0429 6.63475 41.0746 6.8612 41.0891 7.08266C41.1705 8.32985 41.2544 9.56667 41.338 10.7987C41.4099 11.8583 41.4815 12.9144 41.5511 13.9704C41.5475 14.2192 41.5866 14.4668 41.6668 14.7029C41.8555 15.1674 42.325 15.4621 42.8339 15.4354Z" fill="url(#paint1_linear_215_4726)"/>
<defs>
<linearGradient id="paint0_linear_215_4726" x1="0" y1="2.67383" x2="29.6612" y2="12.369" gradientUnits="userSpaceOnUse">
<stop stop-color="#4C9995"/>
<stop offset="1" stop-color="#85C5BC"/>
</linearGradient>
<linearGradient id="paint1_linear_215_4726" x1="31.4554" y1="2.32227" x2="61.7377" y2="12.0983" gradientUnits="userSpaceOnUse">
<stop stop-color="#4C9995"/>
<stop offset="1" stop-color="#85C5BC"/>
</linearGradient>
<clipPath id="clip0_215_4726">
<rect width="22.8" height="25.3333" fill="white" transform="translate(0 1.2666)"/>
</clipPath>
</defs>
</svg>
